<?xml version="1.0" encoding="UTF-8"?>
<svg xmlns="http://www.w3.org/2000/svg" x="0px" y="0px" viewBox="0 0 400 162" enable-background="new 0 0 400 162"><path d="M353.6 80.2a54 54 0 00-1.4-11.8c-.3-1.2-.6-2.4-1-3.6s-.8-2.3-1.2-3.4c-.5-1.1-.9-2.2-1.5-3.2-.5-1-1.1-2-1.7-3s-1.3-1.9-2-2.8v.1c-.1-.2-.2-.3-.4-.5-.1-.2-.2-.3-.4-.5-.1-.2-.3-.3-.4-.5s-.3-.3-.4-.5-.3-.3-.4-.5-.3-.3-.4-.5-.3-.3-.4-.5-.3-.3-.4-.5c-.9-1-1.9-1.9-2.9-2.7-1-.9-2.1-1.6-3.2-2.4-1.1-.7-2.2-1.4-3.4-2s-2.4-1.2-3.6-1.7c-1.3-.5-2.5-.9-3.9-1.3-1.3-.4-2.7-.7-4.1-1s-2.9-.5-4.3-.6c-1.5-.1-3-.2-4.6-.2h-.2c-1.4 0-2.7.1-4.1.3q-1.95.15-3.9.6c-1.3.2-2.5.5-3.8.9q-1.8.45-3.6 1.2c-1.2.4-2.3.9-3.4 1.5q-1.65.75-3.3 1.8c-1.1.6-2.1 1.3-3.1 2.1-1 .7-2 1.5-2.9 2.4h-.1l-.2.2-.2.2-.2.2-.2.2c-.1.1-.1.2-.2.2l-.2.2c-.1.1-.1.2-.2.2-.1.1-.2.1-.2.2h-.1c-.2.2-.4.4-.6.5-.2.2-.4.4-.5.6-.2.2-.4.4-.5.6-.2.2-.3.4-.5.6s-.3.4-.5.6-.3.4-.5.6c-.1.2-.3.4-.4.6s-.3.4-.4.6v.1c-.7.9-1.3 1.8-1.9 2.7s-1.1 1.9-1.6 2.8c-.5 1-1 1.9-1.4 2.9s-.8 2-1.2 3.1c-.3 1.1-.7 2.1-.9 3.2-.3 1.1-.5 2.2-.7 3.4-.2 1.1-.3 2.3-.5 3.5-.1 1.2-.2 2.4-.2 3.6v.1c0 1.2.1 2.4.2 3.6s.2 2.3.4 3.4l.6 3.3c.2 1.1.5 2.1.8 3.2.3 1 .6 2.1 1 3.1s.8 2 1.2 2.9c.4 1 .9 1.9 1.4 2.8s1 1.8 1.6 2.7c.2.3.4.5.5.8.2.3.4.5.6.8s.4.5.6.8.4.5.6.8.4.5.6.8.4.5.6.8.4.5.7.7l.7.7v.1l.1.1.1.1.1.1.1.1.1.1.1.1.1.1.1.1c1 .9 1.9 1.8 3 2.6a37 37 0 006.5 4.2c1.2.6 2.3 1.1 3.5 1.6s2.5.9 3.7 1.3c1.3.4 2.6.7 4 .9 1.3.3 2.7.4 4.2.6 1.4.1 2.9.2 4.4.2h3.3c1.3 0 2.6 0 3.9-.1s2.6-.2 3.9-.5c1.3-.2 2.5-.5 3.8-.8s2.5-.7 3.7-1.1 2.4-.9 3.7-1.4q1.8-.75 3.6-1.8c1.2-.6 2.4-1.3 3.5-2.1 1.2-.7 2.3-1.5 3.4-2.4l.1-.1.1-.1s0-.1.1-.1l.1-.1s0-.1.1-.1c0 0 0-.1.1-.1v-1.5s0-.1-.1-.1c0 0 0-.1-.1-.1 0 0 0-.1-.1-.1l-.1-.1-.1-.1-.1-.1-.1-.1-.1-.1-.1-.1-.1-.1-.1-.1c-.2-.2-.4-.5-.6-.7s-.4-.5-.6-.7-.4-.5-.6-.7-.4-.5-.6-.7-.4-.5-.6-.7-.4-.5-.5-.7c-.2-.2-.3-.5-.5-.7s-.3-.5-.4-.7l-.1-.1-.1-.1-.1-.1s-.1 0-.1-.1l-.1-.1-.1-.1h-.2s-.1 0-.1-.1h-1.5c-.8.6-1.7 1.2-2.5 1.8-.9.5-1.7 1.1-2.6 1.5-.9.5-1.8.9-2.7 1.3s-1.8.7-2.7 1.1c-.9.3-1.8.6-2.8.8l-2.8.6c-1 .1-1.9.3-2.9.3-1 .1-2 .1-3 .1h-3.4c-2-.2-4-.5-5.8-.9s-3.5-.9-5.2-1.6c-1.6-.6-3.1-1.4-4.5-2.3s-2.7-1.9-3.8-3c-1.2-1.1-2.2-2.4-3.2-3.7-1-1.4-1.8-2.8-2.5-4.5-.7-1.6-1.4-3.3-1.9-5.2-.5-1.8-.9-3.8-1.2-5.9v-1.4h69.3s.1 0 .1-.1c0 0 .1 0 .1-.1 0 0 .1 0 .1-.1l.1-.1.1-.1.1-.1.1-.1.1-.1.1-.1s0-.1.1-.1v-.8c0 .3 0 .3-.1.1.1.1 0 .1 0 0M284 70.3c3.1-12.4 14.3-21.7 27.6-21.7 13.4 0 24.6 9.2 27.6 21.7zm86.8 85.7c1.5 0 2.4-1.1 2.4-2.5 0-1.5-1-2.5-2.4-2.5s-2.4 1.1-2.4 2.5c0 1.5 1 2.5 2.4 2.5m-13.9-9.7c.2-1.6 1.2-3.8 3.6-3.8 2.6 0 3.3 2.4 3.2 3.8zm10.4 2.7c.1-.4.1-.9.1-1.7 0-3.4-1.6-7.6-6.7-7.6-5 0-7.6 4.1-7.6 8.4 0 4.8 3 7.9 8 7.9 2.2 0 4.1-.4 5.4-1l-.6-2.7c-1.2.4-2.5.7-4.3.7-2.5 0-4.7-1.2-4.8-4zm-26.8 5.9c1.2.6 2.9 1.1 4.7 1.1 4.1 0 6.3-2.1 6.3-4.9 0-2.3-1.3-3.7-4.2-4.8-2-.7-2.7-1.2-2.7-2.2s.8-1.6 2.2-1.6 2.6.5 3.3.9l.8-2.8c-.9-.5-2.4-.9-4.1-.9-3.6 0-5.9 2.1-5.9 4.9 0 1.8 1.2 3.5 4.3 4.5 1.9.7 2.6 1.2 2.6 2.3 0 1-.8 1.7-2.5 1.7-1.4 0-3.1-.6-4-1.1zm-4-21.3c-1.3 0-2.2.9-2.2 2.1s.9 2.1 2.2 2.1c1.4 0 2.2-.9 2.2-2.1-.1-1.2-.9-2.1-2.2-2.1m1.9 6.5h-4v15.6h4zm-29.2 15.6h3.8v-9.2c0-.4.1-.9.2-1.3.4-1.1 1.3-2.2 2.8-2.2 1.8 0 2.7 1.5 2.7 3.7v9h3.8v-9.3c0-.4.1-.9.2-1.3.4-1.1 1.4-2.1 2.8-2.1 1.9 0 2.8 1.5 2.8 4.1v8.6h3.8v-9.2c0-5-2.6-6.8-5.2-6.8-1.3 0-2.3.3-3.1.9-.7.4-1.4 1.1-1.9 2h-.1a4.6 4.6 0 00-4.3-2.9c-2.6 0-4 1.4-4.8 2.7h-.1l-.2-2.3H309c.1 1.3.1 2.8.1 4.6v11zm-9.6-13.1c2.7 0 3.8 2.8 3.8 5.2 0 3.1-1.6 5.3-3.8 5.3-2.4 0-3.9-2.3-3.9-5.3 0-2.5 1.1-5.2 3.9-5.2m.1-2.8c-4.7 0-8.1 3.1-8.1 8.3 0 5 3.4 8 7.8 8 4 0 8-2.6 8-8.3.1-4.8-3-8-7.7-8m-17.6 15.9h3.9v-8.1c0-.4.1-.9.1-1.2.4-1.8 1.6-3 3.5-3 .5 0 .8.1 1.2.1v-3.7c-.3-.1-.5-.1-.9-.1-1.7 0-3.5 1.1-4.3 3.3h-.1l-.1-3H282c.1 1.4.1 2.9.1 5zm-13.3-8.9c0-.3.1-.7.2-1a3.7 3.7 0 013.5-2.9c2.5 0 3.9 2.2 3.9 5 0 3.1-1.5 5.2-4 5.2-1.7 0-3.1-1.2-3.5-2.8-.1-.4-.1-.7-.1-1.1zm-3.9 15.2h3.9v-8h.1c.8 1.2 2.4 2.1 4.4 2.1 3.6 0 7.1-2.7 7.1-8.4 0-4.9-3-7.9-6.6-7.9-2.4 0-4.2 1-5.3 2.8h-.1l-.2-2.4h-3.5c.1 1.5.1 3.1.1 5.2V162zm-25.3-6.3h3.8v-9.2c0-.4.1-.9.2-1.3.4-1.1 1.3-2.2 2.8-2.2 1.8 0 2.7 1.5 2.7 3.7v9h3.8v-9.3c0-.4.1-.9.2-1.3.4-1.1 1.4-2.1 2.8-2.1 1.9 0 2.8 1.5 2.8 4.1v8.6h3.8v-9.2c0-5-2.6-6.8-5.2-6.8-1.3 0-2.3.3-3.1.9-.7.4-1.4 1.1-1.9 2h-.1a4.6 4.6 0 00-4.3-2.9c-2.6 0-4 1.4-4.8 2.7h-.1l-.2-2.3h-3.4c.1 1.3.1 2.8.1 4.6v11zm-10.1-13.1c2.7 0 3.8 2.8 3.8 5.2 0 3.1-1.6 5.3-3.8 5.3-2.4 0-3.9-2.3-3.9-5.3 0-2.5 1.1-5.2 3.9-5.2m.1-2.8c-4.7 0-8.1 3.1-8.1 8.3 0 5 3.4 8 7.8 8 4 0 8-2.6 8-8.3.1-4.8-3-8-7.7-8m-9.4 12.5c-.8.3-1.7.6-3.1.6-2.7 0-4.8-1.8-4.8-5 0-2.9 1.8-5.1 4.8-5.1 1.4 0 2.3.3 3 .6l.7-2.9c-.9-.4-2.4-.7-3.8-.7-5.5 0-8.7 3.6-8.7 8.3 0 4.8 3.2 8 8 8 2 0 3.6-.4 4.4-.8zM189 137.2v2.9h-2.2v2.9h2.2v7.3c0 2 .4 3.5 1.2 4.4.7.8 2 1.3 3.4 1.3 1.2 0 2.3-.2 2.9-.4l-.1-3c-.4.1-.8.2-1.5.2-1.5 0-2-1-2-2.9V143h3.7v-2.9h-3.7v-4zm-4.2 2.9h-3.9v9.4c0 .4-.1.9-.2 1.2-.4 1-1.4 2.1-3 2.1-2.1 0-2.9-1.7-2.9-4.3V140h-3.9v9.2c0 5.1 2.6 6.8 5.4 6.8s4.3-1.6 5-2.7h.1l.2 2.4h3.5c-.1-1.3-.1-2.8-.1-4.7v-10.9zm-23.5 2.5c2.7 0 3.8 2.8 3.8 5.2 0 3.1-1.6 5.3-3.8 5.3-2.4 0-3.9-2.3-3.9-5.3 0-2.5 1.1-5.2 3.9-5.2m.1-2.8c-4.7 0-8.1 3.1-8.1 8.3 0 5 3.4 8 7.8 8 4 0 8-2.6 8-8.3.1-4.8-3-8-7.7-8m-23.7 15.9h4v-9.3c0-.4 0-.9.2-1.2.4-1.2 1.5-2.2 3-2.2 2.2 0 3 1.7 3 4v8.7h3.9v-9.2c0-5-2.8-6.8-5.4-6.8a5.8 5.8 0 00-4.7 2.5h-.1V133h-4v22.7zm-9.7-18.5v2.9h-2.2v2.9h2.2v7.3c0 2 .4 3.5 1.2 4.4.7.8 2 1.3 3.4 1.3 1.2 0 2.3-.2 2.8-.4l-.1-3c-.4.1-.8.2-1.5.2-1.5 0-2-1-2-2.9V143h3.7v-2.9h-3.7v-4zm-6.1-3.6c-1.3 0-2.2.9-2.2 2.1s.9 2.1 2.2 2.1c1.4 0 2.2-.9 2.2-2.1s-.8-2.1-2.2-2.1m2 6.5h-4v15.6h4zm-28.7 0 4.6 15.6h3.7l2-6.3c.4-1.5.9-3.1 1.2-5h.1c.4 1.9.7 3.4 1.2 5l1.9 6.3h3.7l4.9-15.6h-3.9l-1.7 6.9c-.4 1.8-.8 3.5-1 5.2h-.1c-.4-1.7-.8-3.4-1.2-5.2l-2-6.9h-3.2l-2 7.1c-.4 1.6-1 3.3-1.3 5h-.1c-.3-1.7-.6-3.4-1-5.1l-1.6-7.1h-4.2zm171.5-91c.1-.2.2-.3.2-.5.1-.1.1-.3.1-.4s0-.3-.1-.4c0-.1-.1-.3-.2-.4l-.4-.4c-.2-.1-1.6-1.2-2.8-2s-2.4-1.5-3.6-2.2-2.4-1.3-3.7-1.9c-1.2-.6-2.5-1.1-3.7-1.5-1.3-.4-2.5-.8-3.8-1.2-1.3-.3-2.6-.6-3.9-.8s-2.6-.4-4-.4c-1.3-.1-2.7-.1-4.1-.1-1.6 0-3.2.1-4.7.3l-4.5.6c-1.5.3-2.9.6-4.3 1a49 49 0 00-8 3.1c-1.3.6-2.5 1.3-3.7 2.1s-2.3 1.6-3.4 2.5-2.2 1.8-3.2 2.8c-1.1 1-2 2-3 3.1-.9 1.1-1.8 2.2-2.6 3.3s-1.5 2.3-2.2 3.5-1.3 2.5-1.8 3.8c-.6 1.3-1 2.6-1.5 4-.4 1.4-.8 2.8-1.1 4.2s-.5 2.9-.7 4.4a34 34 0 000 9c.2 1.4.4 2.9.7 4.2.3 1.4.7 2.7 1.1 4q.6 1.95 1.5 3.9c.6 1.3 1.2 2.5 1.8 3.7.7 1.2 1.4 2.4 2.2 3.5s1.7 2.2 2.6 3.3 1.9 2.1 3 3.1c1 .9 1.9 1.7 3 2.5 1 .8 2.1 1.5 3.1 2.2 1.1.7 2.2 1.3 3.3 1.9s2.3 1.1 3.5 1.6 2.4 1 3.7 1.4 2.5.8 3.9 1.1a57 57 0 008.2 1.3h3.2c1.3 0 2.6 0 3.9-.1s2.6-.2 3.9-.4 2.5-.5 3.8-.8 2.5-.7 3.7-1.1 2.4-.9 3.6-1.4q1.8-.75 3.6-1.8c1.2-.6 4.8-2.8 5.9-3.7 0 0 1.6-.8.5-2.5 0 0-.1-.1-.1-.2l-2.6-4c-.2-.2-1.5-2.2-1.7-2.5s-1-1.8-2.4-.8l-.3.2-2.4 1.6c-.9.5-1.7 1.1-2.6 1.5-.9.5-1.8.9-2.7 1.3s-1.8.7-2.7 1.1c-.9.3-1.8.6-2.8.8-.9.2-1.9.4-2.9.6s-1.9.3-2.9.3c-1 .1-2 .1-3 .1h-3.2c-1-.1-2-.2-2.9-.4s-1.9-.3-2.8-.6c-.9-.2-1.8-.5-2.7-.8s-1.7-.6-2.5-1l-2.4-1.2c-.8-.4-1.6-.9-2.3-1.4a33 33 0 01-4.3-3.6c-.7-.7-1.4-1.5-2.1-2.2q-1.05-1.2-1.8-2.4c-.6-.8-1.1-1.7-1.6-2.5-.5-.9-.9-1.8-1.3-2.7s-.7-1.8-1-2.8-.6-1.9-.8-2.9-.4-2-.5-3.1-.2-2.1-.2-3.2a32 32 0 01.7-6.3c.2-1 .5-2 .7-3 .3-1 .6-1.9 1-2.8s.8-1.8 1.3-2.7 1-1.7 1.5-2.6l1.8-2.4c.7-.8 1.3-1.5 2.1-2.3.7-.7 1.5-1.4 2.3-2l2.4-1.8c.8-.6 1.7-1.1 2.6-1.5.9-.5 1.8-.9 2.8-1.3a28 28 0 016-1.7c1.1-.2 2.1-.4 3.2-.5s2.2-.2 3.4-.2c1 0 2 0 3 .1l3 .3 3 .6 2.9.9c1 .3 1.9.7 2.9 1.2 1 .4 1.9.9 2.8 1.5.9.5 1.9 1.1 2.8 1.7.8.6 1.7 1.2 2.5 1.8.1.1 1.5 1.1 2.7-.6.9-.2 5-6.9 5.1-7m97.7-16.9v61.7c0 .3 0 .6.1.8 0 .3 0 .6.1.8 0 .3.1.6.1.8 0 .3.1.5.1.8s.1.5.1.8.1.5.1.8c.1.3.1.5.2.8s.1.5.2.8.1.5.2.8.1.5.2.7c.1.3.1.5.2.7s.1.5.2.7.2.5.2.7c.1.2.2.5.3.7s.2.5.3.7.2.5.3.7.2.5.3.7.2.5.3.7.2.4.3.7c.1.2.2.4.4.7.1.2.2.4.4.6.1.2.3.4.4.6s.3.4.4.6.3.4.4.6.3.4.4.6.3.4.5.6c.1.2.3.4.5.6s.3.4.5.6.3.4.5.6.3.4.5.6l.5.5.2.2.2.2.2.2.2.2.2.2.2.2.2.2c.1 0 .1.1.2.2l.2.2.2.2.2.2.2.2c.1 0 .1.1.2.2.1 0 .1.1.2.2.1 0 .1.1.2.1l.2.2c.1 0 .1.1.2.1l.2.2c.1 0 .1.1.2.1s.1.1.2.1c.1.1.1.1.2.1s.1.1.2.1.1.1.2.1.1.1.2.1.1.1.2.1.1.1.2.1.1.1.2.1.1.1.2.1.1.1.2.1.1.1.2.1.1.1.2.1c.1.1.1.1.2.1l.2-.3.2-.3.2-.3.2-.3.2-.3.2-.3.2-.3.2-.3.2-.3.2-.3.2-.3.2-.3.2-.3.2-.3.2-.3.2-.3.2-.3.2-.3.2-.3.2-.3.2-.3.2-.3.2-.3.2-.3.2-.3.2-.3.2-.3.2-.3.2-.3.2-.3.2-.3.2-.3c-.2-.1-.4-.3-.6-.4s-.4-.3-.6-.4c-.2-.2-.4-.3-.5-.5-.2-.1-.4-.3-.5-.4-.2-.1-.3-.3-.5-.5l-.5-.5-.5-.5-.5-.5c-.2-.2-.3-.3-.4-.5s-.3-.3-.4-.5-.3-.3-.4-.5-.3-.3-.4-.5-.3-.3-.4-.5-.2-.3-.4-.5c-.1-.2-.2-.3-.3-.5s-.2-.3-.3-.5-.2-.3-.3-.5-.2-.3-.3-.5-.2-.3-.3-.5-.2-.3-.3-.5-.2-.3-.2-.5c-.1-.2-.1-.3-.2-.5s-.1-.4-.2-.5c-.1-.2-.1-.4-.2-.5-.1-.2-.1-.4-.2-.5-.1-.2-.1-.4-.2-.5 0-.2-.1-.4-.1-.5 0-.2-.1-.4-.1-.5 0-.2-.1-.4-.1-.6s-.1-.4-.1-.5c0-.2 0-.4-.1-.6V30c0-.3 0-.6-.1-.9 0-.3 0-.6-.1-.8 0-.3-.1-.6-.1-.8 0-.3-.1-.6-.1-.8 0-.3-.1-.5-.1-.8s-.1-.5-.1-.8-.1-.5-.2-.8-.1-.5-.2-.8-.1-.5-.2-.8-.1-.5-.2-.8-.1-.5-.2-.8c-.1-.2-.2-.5-.2-.7-.1-.2-.2-.5-.3-.7s-.2-.5-.3-.7-.2-.5-.3-.7-.2-.5-.3-.7-.2-.5-.3-.7-.2-.5-.3-.7-.2-.5-.3-.7-.2-.4-.4-.7c-.1-.2-.3-.4-.4-.7-.1-.2-.3-.4-.4-.6s-.3-.4-.4-.6-.3-.4-.4-.6-.3-.4-.4-.6c-.2-.2-.3-.4-.5-.6s-.3-.4-.5-.6-.3-.4-.5-.6-.3-.4-.5-.6-.4-.4-.5-.6l-.5-.5c-.1 0-.1-.1-.2-.1l-.2-.2c-.1 0-.1-.1-.2-.1s-.1-.1-.2-.1-.1-.1-.2-.1c-.1-.1-.1-.1-.2-.1 0 0-.1-.1-.2-.1s-.1-.1-.2-.1-.1-.1-.2-.1-.1-.1-.2-.1c0 0-.1-.1-.2-.1s-.1-.1-.2-.1-.1-.1-.2-.1-.1-.1-.2-.1-.1-.1-.2-.1c0 0-.1-.1-.2-.1s-.1-.1-.2-.1c-.1-.1-.1-.1-.2-.1s-.1-.1-.2-.1c-.1-.1-.1-.1-.2-.1s-.1-.1-.2-.1-.1-.1-.2-.1-.1-.1-.2-.1c-.1-.1-.1-.1-.2-.1s-.1-.1-.2-.1-.1-.1-.2-.1-.1-.1-.2-.1-.1-.1-.2-.1-.1-.1-.2-.1c0 0-.1-.1-.2-.1 0-.1-.1-.1-.2-.1s-.1-.1-.2-.1l-.2.3-.4.5-.2.3-.2.3-.2.3-.2.3-.2.3-.2.3-.2.3-.2.3-.2.3-.2.3-.2.3h-.3l-.2.3-.2.3-.2.3-.2.3-.2.3-.2.3-.2.3-.2.3-.2.3-.2.3-.2.3-.2.3-.2.3-.2.3-.2.3-.2.3-.2.3-.2.3c.2.2.4.3.6.4.2.2.4.3.6.5.2.1.4.3.5.5.2.2.4.3.5.5l.5.5.5.5.5.5.5.5c.1.2.3.3.4.5s.3.3.4.5.3.3.4.5.3.3.4.5.2.3.4.5c.1.2.2.3.4.5.1.2.2.3.3.5s.2.3.3.5.2.3.3.5.2.3.3.5.2.3.3.5.2.3.3.5.2.3.2.5c.1.2.1.3.2.5s.1.3.2.5.1.4.2.5c.1.2.1.4.2.5.1.2.1.4.1.5.1.2.1.4.1.5 0 .2.1.4.1.5 0 .2.1.4.1.5 0 .2.1.4.1.6s0 .4.1.6c.4 1.8.5 2 .5 2.2m-269.2 15v-8c0-2.5 2.5-2.5 2.5-2.5h1.7c13 .1 25.4 6.6 33 17.2l32.5 44a28.1 28.1 0 0022.8 11.8h1.5s2.5 0 2.5 2.5v8s0 2.5-2.5 2.5h-1.8c-13-.1-25.4-6.6-33-17.2l-32.5-44a28.1 28.1 0 00-22.8-11.8h-1.4c-2.5 0-2.5-2.5-2.5-2.5"/><path d="m154.6 75.4-8-10.8 7.8-10.6a40.9 40.9 0 0133-17.2h1.8s2.5 0 2.5 2.5v8s0 2.5-2.5 2.5h-1.5c-9 0-17.6 4.5-22.8 11.8zm-59.4 44.9v-8c0-2.5 2.5-2.5 2.5-2.5h1.4c9 0 17.6-4.4 22.8-11.8l10.3-14 8 10.8-7.9 10.7a40.9 40.9 0 01-33 17.2h-1.7c-2.4 0-2.4-2.4-2.4-2.4m-.4-40.1a54 54 0 00-1.4-11.8c-.3-1.2-.6-2.4-1-3.6s-.8-2.3-1.2-3.4c-.5-1.1-.9-2.2-1.5-3.2-.5-1-1.1-2-1.7-3s-1.3-1.9-2-2.8v.1c-.1-.2-.2-.3-.4-.5-.1-.2-.2-.3-.4-.5-.1-.2-.3-.3-.4-.5s-.3-.3-.4-.5-.3-.3-.4-.5-.3-.3-.4-.5-.3-.3-.4-.5-.3-.3-.4-.5c-.9-1-1.9-1.9-2.9-2.7-1-.9-2.1-1.6-3.2-2.4-1.1-.7-2.2-1.4-3.4-2s-2.4-1.2-3.6-1.7c-1.3-.5-2.5-.9-3.9-1.3-1.3-.4-2.7-.7-4.1-1s-2.9-.5-4.3-.6c-1.5-.1-3-.2-4.6-.2h-.2c-1.4 0-2.7.1-4.1.3q-1.95.15-3.9.6c-1.3.2-2.5.5-3.8.9q-1.8.45-3.6 1.2c-1.2.4-2.3.9-3.4 1.5q-1.65.75-3.3 1.8c-1.1.6-2.1 1.3-3.1 2.1-1 .7-2 1.5-2.9 2.4h-.1l-.2.2-.2.2-.2.2-.2.2c-.1.1-.1.2-.2.2l-.2.2c-.1.1-.1.2-.2.2-.1.1-.2.1-.2.2h-.1c-.2.2-.4.4-.6.5-.2.2-.4.4-.5.6-.2.2-.4.4-.5.6-.2.2-.3.4-.5.6s-.3.4-.5.6-.3.4-.5.6c-.1.2-.3.4-.4.6s-.3.4-.4.6v.1c-.7.9-1.3 1.8-1.9 2.7s-1.1 1.9-1.6 2.8c-.5 1-1 1.9-1.4 2.9s-.8 2-1.2 3.1c-.3 1.1-.7 2.1-.9 3.2-.3 1.1-.5 2.2-.7 3.4-.2 1.1-.3 2.3-.5 3.5-.1 1.2-.2 2.4-.2 3.6v.1c0 1.2.1 2.4.2 3.6s.2 2.3.4 3.4l.6 3.3c.2 1.1.5 2.1.8 3.2.3 1 .6 2.1 1 3.1s.8 2 1.2 2.9c.4 1 .9 1.9 1.4 2.8s1 1.8 1.6 2.7c.2.3.4.5.5.8.2.3.4.5.6.8s.4.5.6.8.4.5.6.8.4.5.6.8.4.5.6.8.4.5.7.7l.7.7v.1l.1.1.1.1.1.1.1.1.1.1.1.1.1.1.1.1c1 .9 1.9 1.8 3 2.6a37 37 0 006.5 4.2c1.2.6 2.3 1.1 3.5 1.6s2.5.9 3.7 1.3c1.3.4 2.6.7 4 .9 1.3.3 2.7.4 4.2.6 1.4.1 2.9.2 4.4.2H56c1.3 0 2.6 0 3.9-.1s2.6-.2 3.9-.5c1.3-.2 2.5-.5 3.8-.8s2.5-.7 3.7-1.1 2.4-.9 3.7-1.4q1.8-.75 3.6-1.8c1.2-.6 2.4-1.3 3.5-2.1 1.2-.7 2.3-1.5 3.4-2.4l.1-.1.1-.1s0-.1.1-.1l.1-.1s0-.1.1-.1c0 0 0-.1.1-.1v-1.5s0-.1-.1-.1c0 0 0-.1-.1-.1 0 0 0-.1-.1-.1l-.1-.1-.1-.1-.1-.1-.1-.1-.1-.1-.1-.1-.1-.1-.1-.1c-.2-.2-.4-.5-.6-.7s-.4-.5-.6-.7-.4-.5-.6-.7-.4-.5-.6-.7-.4-.5-.6-.7-.4-.5-.5-.7c-.2-.2-.3-.5-.5-.7s-.3-.5-.4-.7l-.1-.1-.1-.1-.1-.1s-.1 0-.1-.1l-.1-.1-.1-.1h-.2s-.1 0-.1-.1h-1.6c-.8.6-1.7 1.2-2.5 1.8-.9.5-1.7 1.1-2.6 1.5-.9.5-1.8.9-2.7 1.3s-1.8.7-2.7 1.1c-.9.3-1.9.6-2.8.8l-2.8.6c-1 .1-1.9.3-2.9.3-1 .1-2 .1-3 .1h-3.5c-2-.2-4-.5-5.8-.9s-3.5-.9-5.2-1.6c-1.6-.6-3.1-1.4-4.5-2.3s-2.7-1.9-3.8-3c-1.2-1.1-2.2-2.4-3.2-3.7-1-1.4-1.8-2.8-2.5-4.5-.7-1.6-1.4-3.3-1.9-5.2-.5-1.8-.9-3.8-1.2-5.9v-1.4h69.3s.1 0 .1-.1c0 0 .1 0 .1-.1 0 0 .1 0 .1-.1l.1-.1.1-.1.1-.1.1-.1.1-.1.1-.1s0-.1.1-.1v-.8zq0 .15 0 0m-69.7-9.9c3.1-12.4 14.3-21.7 27.6-21.7 13.4 0 24.6 9.2 27.6 21.7z"/></svg>