<svg xmlns="http://www.w3.org/2000/svg" xmlns:xlink="http://www.w3.org/1999/xlink" xmlns:serif="http://www.serif.com/" width="100%" height="100%" viewBox="0 0 154 33" version="1.1" xml:space="preserve" style="fill-rule:evenodd;clip-rule:evenodd;stroke-linejoin:round;stroke-miterlimit:2;"><g><path d="M128.937,12.088l-4.149,0l-3.166,9.579l-3.707,-9.579l-4.239,0l5.964,14.077c-0.341,0.954 -0.796,1.648 -1.37,2.081c-0.577,0.435 -1.358,0.641 -2.342,0.622l-0.074,-0.002l-0,3.614l0.069,0.004c1.871,0.097 3.434,-0.328 4.692,-1.273c1.254,-0.943 2.261,-2.462 3.019,-4.561l5.303,-14.562Zm-59.768,8.911l10.875,-0l0.01,-0.06c0.098,-0.544 0.146,-1.06 0.146,-1.546c0,-2.18 -0.697,-4.009 -2.089,-5.488c-1.393,-1.481 -3.161,-2.222 -5.305,-2.222c-2.259,0 -4.109,0.736 -5.55,2.206c-1.441,1.47 -2.162,3.305 -2.162,5.504c-0,2.22 0.731,4.059 2.191,5.519c1.46,1.46 3.397,2.191 5.81,2.191c2.805,-0 4.927,-1.043 6.369,-3.127l0.044,-0.064l-3.132,-1.807l-0.039,0.051c-0.72,0.947 -1.782,1.418 -3.184,1.418c-2.141,-0 -3.471,-0.856 -3.984,-2.575Zm63.378,-0l10.875,-0l0.01,-0.06c0.098,-0.544 0.146,-1.06 0.146,-1.546c0,-2.18 -0.696,-4.009 -2.089,-5.488c-1.393,-1.481 -3.161,-2.222 -5.305,-2.222c-2.259,0 -4.109,0.736 -5.55,2.206c-1.441,1.47 -2.162,3.305 -2.162,5.504c-0,2.22 0.731,4.059 2.191,5.519c1.46,1.46 3.397,2.191 5.811,2.191c2.804,-0 4.927,-1.043 6.368,-3.127l0.045,-0.064l-3.133,-1.807l-0.039,0.051c-0.72,0.947 -1.782,1.418 -3.184,1.418c-2.141,-0 -3.471,-0.856 -3.984,-2.575Zm-19.732,-8.911l-3.878,0l0,1.578c-1.123,-1.321 -2.671,-1.983 -4.644,-1.983c-1.95,0 -3.622,0.745 -5.016,2.237c-1.393,1.488 -2.089,3.313 -2.089,5.473c-0,2.161 0.696,3.985 2.089,5.474c1.394,1.491 3.066,2.236 5.016,2.236c1.973,-0 3.521,-0.662 4.644,-1.982l0,1.577l3.878,-0l0,-14.61Zm-55.868,-0.405c-1.972,0 -3.511,0.661 -4.616,1.98l0,-7.36l-3.878,-0l0,20.395l3.878,-0l0,-1.575c1.105,1.319 2.644,1.98 4.616,1.98c1.969,-0 3.651,-0.745 5.045,-2.236c1.392,-1.489 2.089,-3.313 2.089,-5.474c-0,-2.16 -0.697,-3.985 -2.089,-5.474c-1.394,-1.49 -3.076,-2.236 -5.045,-2.236l0,0Zm34.569,-5.38l-0,20.395l3.878,-0l-0,-20.395l-3.878,-0Zm-49.487,5.785l-0,14.61l3.878,-0l-0,-14.61l-3.878,0Zm107.164,2.2l-0,-2.2l-3.878,0l-0,14.61l3.878,-0l-0,-6.987c-0,-1.359 0.435,-2.334 1.313,-2.919c0.883,-0.588 1.885,-0.816 3.005,-0.683l0.081,0.01l-0,-4.32l-0.073,0c-0.997,0 -1.901,0.235 -2.713,0.704c-0.715,0.414 -1.253,1.009 -1.613,1.785l-0,0Zm-63.379,0l0,-2.2l-3.877,0l-0,14.61l3.877,-0l0,-6.987c0,-1.359 0.436,-2.334 1.314,-2.919c0.883,-0.588 1.884,-0.816 3.004,-0.683l0.081,0.01l0,-4.32l-0.072,0c-0.997,0 -1.902,0.235 -2.713,0.704c-0.716,0.414 -1.254,1.009 -1.613,1.785l-0.001,0Zm-32.478,8.107l0,-0c0.766,0.766 1.738,1.15 2.917,1.15c1.178,-0 2.155,-0.389 2.93,-1.164c0.776,-0.775 1.165,-1.771 1.165,-2.988c-0,-1.217 -0.389,-2.212 -1.165,-2.987c-0.775,-0.776 -1.752,-1.164 -2.93,-1.164c-1.179,-0 -2.151,0.388 -2.917,1.164c-0.766,0.775 -1.149,1.771 -1.149,2.987c-0,1.217 0.383,2.217 1.149,3.002Zm48.838,-0.102c-0.74,-0.758 -1.108,-1.725 -1.108,-2.9c-0,-1.175 0.368,-2.137 1.108,-2.885c0.738,-0.748 1.677,-1.122 2.813,-1.122c1.137,0 2.08,0.374 2.829,1.122c0.748,0.748 1.121,1.71 1.121,2.885c0,1.175 -0.373,2.137 -1.121,2.885c-0.749,0.749 -1.692,1.122 -2.829,1.122c-1.136,-0 -2.074,-0.368 -2.813,-1.107Zm-33.067,-4.332c0.215,-0.865 0.632,-1.541 1.255,-2.026c0.644,-0.502 1.459,-0.751 2.444,-0.751c0.833,-0 1.576,0.236 2.229,0.709c0.633,0.458 1.055,1.148 1.269,2.068l-7.197,0Zm63.378,0c0.215,-0.865 0.633,-1.541 1.255,-2.026c0.644,-0.502 1.459,-0.751 2.444,-0.751c0.833,-0 1.576,0.236 2.23,0.709c0.632,0.458 1.054,1.148 1.268,2.068l-7.197,0Zm-90.456,-11.658l-0,3.889l3.878,0l-0,-3.889l-3.878,-0Z" style="fill:#000000;"/><path d="M152.312,26.698c-0.706,0 -1.28,-0.574 -1.28,-1.279c0,-0.706 0.574,-1.28 1.28,-1.28c0.705,0 1.279,0.574 1.279,1.28c0,0.705 -0.574,1.279 -1.279,1.279Zm-0,-2.28c-0.552,-0 -1.001,0.449 -1.001,1.001c-0,0.552 0.449,1.001 1.001,1.001c0.552,-0 1.001,-0.449 1.001,-1.001c-0,-0.552 -0.449,-1.001 -1.001,-1.001Zm0.283,1.59l-0.268,-0.399l-0.216,-0l-0,0.399l-0.275,0l0,-1.249l0.572,0c0.294,0 0.471,0.155 0.471,0.412l-0,0.004c-0,0.201 -0.109,0.328 -0.268,0.387l0.305,0.446l-0.321,0Zm0.005,-0.822c0,-0.118 -0.082,-0.179 -0.216,-0.179l-0.273,0l-0,0.359l0.278,-0c0.134,-0 0.211,-0.071 0.211,-0.177l0,-0.003Z" style="fill:#000000;fill-rule:nonzero;"/><g><path d="M0,4.421c4.856,-2.812 10.491,-4.421 16.5,-4.421c6.008,0 11.644,1.609 16.499,4.421l-5.508,3.179c-3.369,-1.462 -7.086,-2.272 -10.991,-2.272c-3.875,-0 -7.565,0.798 -10.912,2.238l-0.08,0.034l-5.508,-3.179Z" style="fill:url(#_Linear1);"/><path d="M32.999,4.422c0.007,5.61 -1.417,11.296 -4.421,16.499c-3.004,5.204 -7.216,9.279 -12.078,12.079l0.001,-6.36c2.95,-2.187 5.511,-5.001 7.463,-8.383c1.938,-3.355 3.091,-6.95 3.518,-10.569l0.01,-0.085l5.507,-3.181Z" style="fill:url(#_Linear2);"/><path d="M16.5,33c-4.863,-2.8 -9.074,-6.875 -12.078,-12.079c-3.005,-5.203 -4.429,-10.888 -4.422,-16.499l5.507,3.181c0.419,3.648 1.576,7.272 3.528,10.654c1.938,3.356 4.474,6.152 7.395,8.332l0.069,0.051l0.001,6.36Z" style="fill:url(#_Linear3);"/></g></g><defs fill="#000000"><linearGradient id="_Linear1" x1="0" y1="0" x2="1" y2="0" gradientUnits="userSpaceOnUse" gradientTransform="matrix(32.9994,3.24709e-07,-3.24709e-07,32.9994,1.92052e-05,4.42056)" fill="#000000"><stop offset="0" style="stop-color:#03062d;stop-opacity:1" fill="#000000"/><stop offset="0.09" style="stop-color:#03062d;stop-opacity:1" fill="#000000"/><stop offset="0.24" style="stop-color:#062f8d;stop-opacity:1" fill="#000000"/><stop offset="0.41" style="stop-color:#0952e0;stop-opacity:1" fill="#000000"/><stop offset="1" style="stop-color:#0a5fff;stop-opacity:1" fill="#000000"/></linearGradient><linearGradient id="_Linear2" x1="0" y1="0" x2="1" y2="0" gradientUnits="userSpaceOnUse" gradientTransform="matrix(-16.4997,28.5784,-28.5784,-16.4997,32.9995,4.42161)" fill="#000000"><stop offset="0" style="stop-color:#03062d;stop-opacity:1" fill="#000000"/><stop offset="0.09" style="stop-color:#03062d;stop-opacity:1" fill="#000000"/><stop offset="0.24" style="stop-color:#062f8d;stop-opacity:1" fill="#000000"/><stop offset="0.41" style="stop-color:#0952e0;stop-opacity:1" fill="#000000"/><stop offset="1" style="stop-color:#0a5fff;stop-opacity:1" fill="#000000"/></linearGradient><linearGradient id="_Linear3" x1="0" y1="0" x2="1" y2="0" gradientUnits="userSpaceOnUse" gradientTransform="matrix(-16.4997,-28.5784,28.5784,-16.4997,16.4997,33)" fill="#000000"><stop offset="0" style="stop-color:#03062d;stop-opacity:1" fill="#000000"/><stop offset="0.09" style="stop-color:#03062d;stop-opacity:1" fill="#000000"/><stop offset="0.24" style="stop-color:#062f8d;stop-opacity:1" fill="#000000"/><stop offset="0.41" style="stop-color:#0952e0;stop-opacity:1" fill="#000000"/><stop offset="1" style="stop-color:#0a5fff;stop-opacity:1" fill="#000000"/></linearGradient></defs></svg>