<?xml version="1.0" encoding="UTF-8"?>
<svg id="Layer_2" data-name="Layer 2" xmlns="http://www.w3.org/2000/svg" viewBox="0 0 760.46 133.72">
  <defs>
    <style>
      .cls-1 {
        fill: #231f20;
      }

      .cls-2 {
        fill: #009d54;
      }

      .cls-2, .cls-3, .cls-4, .cls-5 {
        fill-rule: evenodd;
      }

      .cls-3 {
        fill: #007ac1;
      }

      .cls-4 {
        fill: #cb2032;
      }

      .cls-5 {
        fill: #faa61a;
      }
    </style>
  </defs>
  <g id="Layer_1-2" data-name="Layer 1">
    <g>
      <path class="cls-5" d="M724.67,3.77c44.7,31.08,26.04,103.2-21.73,111h0c61.35.05,81.27-83.13,21.73-111"/>
      <path class="cls-3" d="M677.07,3.3c53.3-7.85,75.15,57.99,51.83,88.41,38.59-38.89,7.71-107.57-51.83-88.41"/>
      <path class="cls-2" d="M645.6,35.43c26.28-38.91,80.87-14.83,86.34,24.5,6.27-48.61-57.81-75.55-86.34-24.5"/>
      <path class="cls-4" d="M644.31,64.53c6.38-40.4,58.96-44.63,77.9-16.25-15.48-40.2-76.88-35.29-77.9,16.25"/>
      <g>
        <path class="cls-1" d="M0,43.01h21.37l17.81,46.75,17.37-46.75h20.98v71.44h-16.1v-50.16l-19.76,50.16h-7.32l-19.86-50.16v50.16H0V43.01Z"/>
        <path class="cls-1" d="M121.16,108.15c-3.71,5.51-9.22,7.42-15.42,7.42-10.15,0-17.76-5.07-17.76-15.52,0-13.27,12.39-16.84,23.67-16.84h9.37c0-7.03-.68-11.76-8.88-11.76-4.59,0-9.12,2.1-10.69,6.73l-11.08-4.83c3.42-9.42,14-12.39,23.42-12.39,12.64,0,21.52,5.42,21.52,19.42v34.06h-14.15v-6.29ZM115.45,91.76c-5.17,0-13.32.39-13.32,7.42,0,4.64,3.46,6.29,7.66,6.29,5.66,0,11.22-2.98,11.22-9.32v-4.39h-5.56Z"/>
        <path class="cls-1" d="M147.8,62.19h14.49v8.29c3.37-6.44,10.49-9.52,17.66-9.52,12.2,0,17.42,8.83,17.42,20.2v33.28h-14.49v-31.18c0-6.49-2.93-10.49-9.66-10.49-7.17,0-10.93,4.59-10.93,11.51v30.16h-14.49v-52.26Z"/>
        <path class="cls-1" d="M239.68,108.15c-3.71,5.51-9.22,7.42-15.42,7.42-10.15,0-17.76-5.07-17.76-15.52,0-13.27,12.39-16.84,23.67-16.84h9.37c0-7.03-.68-11.76-8.88-11.76-4.59,0-9.12,2.1-10.69,6.73l-11.08-4.83c3.42-9.42,14-12.39,23.42-12.39,12.64,0,21.52,5.42,21.52,19.42v34.06h-14.15v-6.29ZM233.97,91.76c-5.17,0-13.32.39-13.32,7.42,0,4.64,3.46,6.29,7.66,6.29,5.66,0,11.22-2.98,11.22-9.32v-4.39h-5.56Z"/>
        <path class="cls-1" d="M276.42,116.16c2.2,5.32,7.76,6.98,13.18,6.98,8.44,0,13.13-4.05,13.13-12.78v-7.91c-3.42,5.86-10,9.71-16.79,9.71-14.83,0-22.79-11.81-22.79-25.67s8.73-25.52,23.37-25.52c6.78,0,12.64,2.59,16.2,9.03v-7.81h14.39v48.16c0,17.03-12.2,23.37-27.52,23.37-9.81,0-20.64-2.59-24.54-12.59l11.37-4.98ZM303.11,86.39c0-8.15-3.95-14.4-12.69-14.4s-12.49,6.88-12.49,15.18c0,7.56,4.15,14.1,12.64,14.1s12.54-6.83,12.54-14.88Z"/>
        <path class="cls-1" d="M377.77,103.27c-4.05,9.42-14.35,12.3-23.28,12.3-17.27,0-27.76-10.69-27.76-27.42,0-15.66,11.13-27.18,26.98-27.18,10.15,0,19.27,4.68,23.18,14.25,2.2,5.37,2.2,10.88,2.2,16.35h-37.67c.39,8.05,4.44,13.71,12.98,13.71,5.66,0,9.95-1.46,12.69-6.73l10.69,4.73ZM364.99,82.68c-.39-7.17-3.85-11.71-11.08-11.71s-11.37,4.98-12.3,11.71h23.37Z"/>
        <path class="cls-1" d="M390.46,43.01h45.28v8.88h-34.21v21.76h27.91v8.73h-27.91v23.18h35.91v8.88h-46.99V43.01Z"/>
        <path class="cls-1" d="M448.91,62.14h10.39v8.3c3.12-6.49,10.05-9.27,17.13-9.27,12.69,0,18.64,9.03,18.64,21.08v32.21h-10.39v-31.91c0-8.05-3.81-12.64-11.81-12.64-8.44,0-13.57,5.12-13.57,13.32v31.23h-10.39v-52.31Z"/>
        <path class="cls-1" d="M516.01,117.33c2.73,6.1,9.52,8.1,15.66,8.1,9.61,0,16.3-4.88,16.3-14.98v-7.71c-3.66,6.15-11.03,9.81-18.1,9.81-14.69,0-23.37-11.56-23.37-25.23s9.47-26.15,23.91-26.15c7.08,0,13.91,2.83,17.57,9.08v-8.1h10.3v48.6c0,15.91-11.96,22.88-26.84,22.88-9.66,0-19.18-2.93-23.62-12.69l8.2-3.61ZM548.26,86.39c0-9.61-5.32-17.03-15.47-17.03-10.69,0-15.71,8.2-15.71,18.01,0,8.83,5.81,16.98,15.18,16.98,10.34,0,16.01-8.05,16.01-17.96Z"/>
        <path class="cls-1" d="M577.19,40.82c3.46,0,6.44,2.68,6.44,6.29s-2.93,6.29-6.44,6.29-6.44-2.78-6.44-6.29,2.93-6.29,6.44-6.29ZM572.17,62.29h10.3v52.16h-10.3v-52.16Z"/>
        <path class="cls-1" d="M598.32,62.14h10.39v8.3c3.12-6.49,10.05-9.27,17.13-9.27,12.69,0,18.64,9.03,18.64,21.08v32.21h-10.39v-31.91c0-8.05-3.81-12.64-11.81-12.64-8.44,0-13.57,5.12-13.57,13.32v31.23h-10.39v-52.31Z"/>
        <path class="cls-1" d="M704.26,102.74c-4.59,8.88-12.78,12.69-22.15,12.69-16.49,0-26.2-11.71-26.2-26.94s9.86-27.33,25.28-27.33c18.3,0,24.1,12.98,24.1,29.28h-38.79c0,9.61,5.12,16.93,15.13,16.93,6.39,0,11.27-3.03,14.05-8.29l8.59,3.66ZM694.99,83.02c-.54-8.44-4.93-13.96-13.42-13.96s-13.61,6.1-14.79,13.96h28.2Z"/>
      </g>
    </g>
  </g>
</svg>