<?xml version="1.0" encoding="UTF-8"?>
<svg width="120" height="32" fill="none" version="1.1" viewBox="0 0 120 32" xmlns="http://www.w3.org/2000/svg">
 <title>Yubico</title>
 <desc>American cybersecurity company</desc>
 <g fill="#84BD00">
  <path d="m10.512 18.844 4.168-11.804h6.0205l-10.147 24.959h-6.3546l2.9031-6.8387-7.1014-18.121h6.1474l4.3644 11.804z"/>
  <path d="m41.947 25.3h-5.8705v-2.0152c-0.9245 0.7244-1.9199 1.3535-2.971 1.8777-0.8992 0.4287-1.9711 0.6425-3.2157 0.6413-2.014 0-3.5623-0.5794-4.6449-1.7383-1.0827-1.1588-1.6269-2.8721-1.6329-5.1398v-11.886h5.8651v9.0576c0 0.9218 0.0298 1.6888 0.0893 2.301 0.0364 0.5292 0.1772 1.0459 0.4145 1.5203 0.1985 0.3933 0.5293 0.704 0.9344 0.8772 0.418 0.1846 1.001 0.2769 1.749 0.2769 0.5631-0.0108 1.1217-0.1041 1.6578-0.2769 0.6197-0.1898 1.2105-0.4633 1.7562-0.8128v-12.943h5.8687v18.26z"/>
  <path d="m65.565 15.92c0 2.8727-0.7932 5.2142-2.3796 7.0246-1.5864 1.8103-3.5647 2.7154-5.9348 2.7154-0.9039 0.0141-1.8055-0.0953-2.6798-0.3251-0.7684-0.2181-1.5053-0.5352-2.192-0.9433l-0.2448 0.9094h-5.6239v-25.301h5.8705v8.9433c0.8476-0.68405 1.7714-1.2679 2.753-1.7401 1.0162-0.46155 2.123-0.68927 3.2389-0.66637 2.3058 0 4.0816 0.83371 5.3274 2.5011 1.2458 1.6674 1.8675 3.9612 1.8651 6.8816zm-6.0312 0.1215c0-1.6246-0.2763-2.8751-0.829-3.7517-0.5526-0.8766-1.5364-1.3149-2.9513-1.3149-0.5771 0.0037-1.1508 0.0885-1.7043 0.2519-0.5854 0.1648-1.147 0.405-1.6704 0.7146v9.1559c0.3886 0.1437 0.7909 0.2473 1.2005 0.3091 0.452 0.0588 0.9074 0.0863 1.3631 0.0821 1.5483 0 2.7001-0.4549 3.4551-1.3648 0.7551-0.91 1.1345-2.2707 1.1381-4.0822h-0.0018z"/>
  <path d="m75.462 4.4395h-6.1956v-4.4395h6.1956v4.4395zm-0.1626 20.861h-5.8704v-18.26h5.8704v18.26z"/>
  <path d="m90.29 25.788c-1.4725 0.0152-2.9397-0.1761-4.3591-0.5681-1.2534-0.3464-2.4234-0.9439-3.439-1.7561-0.9754-0.8048-1.7446-1.8307-2.2439-2.9924-0.53-1.2017-0.7956-2.6107-0.7968-4.2269 0-1.7031 0.2847-3.1722 0.854-4.4073 0.54-1.1979 1.3561-2.2509 2.3814-3.0728 1.0155-0.78421 2.1765-1.3592 3.4158-1.6918 1.3082-0.35981 2.6593-0.54011 4.0161-0.53595 1.1612-0.00999 2.319 0.12626 3.4461 0.40553 1.0131 0.25725 1.999 0.61142 2.9442 1.0576v4.9915h-0.8289c-0.2263-0.1954-0.4997-0.4228-0.82-0.6825-0.367-0.292-0.7613-0.5481-1.1773-0.7646-0.4652-0.2467-0.9543-0.4454-1.4596-0.5931-0.605-0.1661-1.2307-0.2443-1.858-0.2323-1.5602 0-2.7596 0.4961-3.598 1.4882-0.8385 0.9921-1.2553 2.3391-1.2506 4.0411 0 1.7567 0.43 3.09 1.2899 4 0.8599 0.9099 2.0807 1.3649 3.6623 1.3649 0.6713 0.0084 1.3405-0.0764 1.9884-0.2519 0.5126-0.1366 1.0064-0.3358 1.4703-0.5932 0.3434-0.1992 0.6692-0.4275 0.9737-0.6824 0.2822-0.2394 0.5359-0.4716 0.7789-0.7003h0.8289v5.0022c-0.9309 0.4308-1.9005 0.7724-2.8959 1.0201-1.0877 0.2636-2.2038 0.3914-3.3229 0.3805z"/>
  <path d="m119.9 16.179c0 3.0037-0.875 5.3696-2.626 7.0978-1.751 1.7281-4.209 2.5928-7.375 2.594-3.165 0-5.624-0.8647-7.374-2.594-1.751-1.7294-2.6266-4.0953-2.6266-7.0978 0-3.0252 0.8816-5.3989 2.6436-7.1211 1.763-1.7222 4.215-2.5839 7.357-2.5851 3.187 0 5.651 0.86705 7.391 2.6012 1.74 1.7341 2.61 4.1024 2.61 7.105zm-7.203 4.4394c0.395-0.4976 0.685-1.0701 0.852-1.6828 0.192-0.6563 0.287-1.5644 0.286-2.7245 0.018-0.908-0.08-1.8147-0.293-2.6976-0.15-0.6301-0.429-1.2225-0.818-1.7401-0.321-0.4251-0.754-0.7519-1.251-0.9432-0.504-0.1874-1.039-0.2812-1.577-0.277-0.511-0.0075-1.019 0.0692-1.504 0.2269-0.489 0.1907-0.92 0.5046-1.251 0.9112-0.404 0.5132-0.695 1.1062-0.854 1.74-0.232 0.9078-0.339 1.8431-0.318 2.7798-0.014 0.8727 0.079 1.7439 0.277 2.594 0.141 0.64 0.418 1.242 0.813 1.7651 0.331 0.4102 0.762 0.7293 1.25 0.9272 1.021 0.3803 2.143 0.3885 3.17 0.0232 0.481-0.1825 0.903-0.4947 1.218-0.9022z"/>
 </g>
</svg>